<svg width="55" height="66" viewBox="0 0 55 66" fill="none" xmlns="http://www.w3.org/2000/svg">
<rect width="54.6528" height="64.7226" transform="matrix(-1 0 0 1 54.6528 0.63871)" fill="#E94922" fill-opacity="0.25"/>
<path d="M33.7046 21.6314C33.9017 21.8303 34.0581 22.0665 34.1648 22.3265C34.2715 22.5865 34.3264 22.8653 34.3264 23.1468C34.3264 23.4283 34.2715 23.707 34.1648 23.967C34.0581 24.2271 33.9017 24.4633 33.7046 24.6621L25.4554 33.0019L33.7046 41.3416C34.1022 41.7435 34.3255 42.2886 34.3255 42.857C34.3255 43.4253 34.1022 43.9704 33.7046 44.3723C33.3071 44.7742 32.7679 45 32.2057 45C31.6435 45 31.1044 44.7742 30.7069 44.3723L20.9481 34.5065C20.751 34.3076 20.5947 34.0714 20.488 33.8114C20.3813 33.5514 20.3264 33.2726 20.3264 32.9911C20.3264 32.7096 20.3813 32.4309 20.488 32.1709C20.5947 31.9108 20.751 31.6746 20.9481 31.4758L30.7069 21.6099C31.5148 20.7931 32.8755 20.7931 33.7046 21.6314Z" fill="#FF8B00"/>
</svg>
