<svg width="54" height="66" viewBox="0 0 54 66" fill="none" xmlns="http://www.w3.org/2000/svg">
<rect width="53.6407" height="64.7226" transform="translate(0.359314 0.63871)" fill="#E94922" fill-opacity="0.25"/>
<path d="M20.8014 21.6314C20.6043 21.8303 20.448 22.0665 20.3413 22.3265C20.2346 22.5865 20.1797 22.8653 20.1797 23.1468C20.1797 23.4283 20.2346 23.707 20.3413 23.967C20.448 24.2271 20.6043 24.4633 20.8014 24.6621L29.0506 33.0019L20.8014 41.3416C20.4039 41.7435 20.1806 42.2886 20.1806 42.857C20.1806 43.4253 20.4039 43.9704 20.8014 44.3723C21.1989 44.7742 21.7381 45 22.3003 45C22.8625 45 23.4017 44.7742 23.7992 44.3723L33.5579 34.5065C33.755 34.3076 33.9114 34.0714 34.0181 33.8114C34.1247 33.5514 34.1797 33.2726 34.1797 32.9911C34.1797 32.7096 34.1247 32.4309 34.0181 32.1709C33.9114 31.9108 33.755 31.6746 33.5579 31.4758L23.7992 21.6099C22.9913 20.7931 21.6306 20.7931 20.8014 21.6314Z" fill="#FF8B00"/>
</svg>
