<svg width="386" height="475" viewBox="0 0 386 475" fill="none" xmlns="http://www.w3.org/2000/svg">
<path d="M238.514 365.378C236.796 365.672 234.702 366.339 233.472 367.98C231.345 370.826 233.472 374.407 237.948 385.272C242.599 396.553 243.704 400.899 247.301 401.493C249.292 401.824 251.165 400.881 252.466 399.963L238.514 365.378ZM169.668 270.916C169.455 270.793 169.219 270.711 168.972 270.677C162.74 269.875 148.976 301.956 156.307 307.074C156.817 307.471 157.46 307.688 158.122 307.686C163.67 307.472 167.32 288.882 169.668 270.916Z" fill="#969696"/>
<path d="M305.675 121.296C305.889 129.865 297.219 127.723 297.219 127.723L293.804 131.396L295.592 141.037C295.592 141.037 288.724 152.82 278.271 156.131C277.344 156.426 276.393 156.649 275.428 156.799C264.747 158.427 256.122 143.993 256.051 133.661C256.035 132.426 256.17 131.193 256.454 129.988C258.952 119.888 265.105 120.292 265.105 120.292C265.105 120.292 264.455 118.358 276.729 108.87C289.003 99.3819 305.46 112.726 305.675 121.296Z" fill="#353437"/>
<path d="M274.776 134.964C274.776 134.964 268.486 129.559 265.995 132.008C263.504 134.456 266.554 146.086 271.316 148.535C276.077 150.983 280.09 146.392 280.09 146.392L278.464 139.457L277.274 136.807L274.776 134.964Z" fill="#F2CDAF"/>
<path d="M184.284 280.447L182.196 290.651C182.196 290.651 181.604 291.263 180.602 292.316C177.851 295.119 172.016 300.836 166.689 304.485C163.332 306.786 160.184 308.267 158.128 307.686C154.961 306.792 156.32 298.112 159.208 289.408C159.859 287.504 160.509 285.601 161.29 283.777C164.132 276.829 167.58 271.038 169.889 270.885C175.581 270.5 184.284 280.447 184.284 280.447ZM255.588 365.99C254.775 387.72 256.239 400.728 251.159 400.575C250.322 400.429 249.566 400.013 249.019 399.4C243.119 393.995 233.115 371.585 235.261 366.602C236.393 363.97 239.561 362.526 242.637 361.705C244.904 361.146 247.23 360.828 249.571 360.757L255.588 365.99Z" fill="#D32633"/>
<path d="M272.773 145.352C271.143 144.093 270.057 142.316 269.723 140.357C269.619 139.561 269.476 138.447 270.198 137.633C271.498 136.194 274.406 136.984 274.751 137.021C275.099 137.031 275.441 137.111 275.753 137.257C276.065 137.403 276.34 137.611 276.559 137.866C277.535 139.212 276.052 142.401 272.689 145.823" fill="#DBAE86"/>
<path d="M278.271 156.131C277.344 156.426 276.394 156.649 275.428 156.798C264.748 158.427 256.122 143.993 256.051 133.66C257.527 139.755 260.928 145.286 265.808 149.527C269.387 152.575 273.645 154.832 278.271 156.131Z" fill="#201F21"/>
<path d="M295.671 176.46V185.495L276.326 189.314C276.326 189.314 256.161 185.495 262.015 174.55C262.75 173.173 263.55 171.82 264.383 170.504C267.685 165.408 271.473 160.605 275.701 156.156C276.84 154.932 277.542 154.277 277.542 154.277C277.542 154.277 283.396 154.062 285.582 157.6C286.032 158.338 286.297 159.163 286.356 160.012C286.479 161.094 286.752 162.156 287.169 163.171C289.459 169.108 295.671 176.46 295.671 176.46Z" fill="#E8C8A3"/>
<path d="M288.436 165.974C287.136 165.362 279.655 162.614 272.311 165.135C269.202 166.226 266.46 168.079 264.369 170.504C267.671 165.408 271.459 160.605 275.687 156.156C278.94 156.596 282.329 157.086 285.568 157.6C285.841 158.359 286.101 159.161 286.342 160.012C286.8 162.067 287.503 164.067 288.436 165.974Z" fill="#DBAE86"/>
<path d="M201.677 285.723C201.677 285.723 200.786 298.504 197.371 298.81C193.956 299.116 181.597 295.75 179.08 294.526C179.027 294.501 178.977 294.473 178.93 294.44C176.465 293.081 174.377 287.664 177.935 281.292C178.917 279.547 180.771 278.843 182.97 278.812C188.935 278.666 197.371 283.128 197.371 283.128L201.677 285.723ZM274.562 344.003L270.874 355.021C270.874 355.021 260.467 366.352 255.452 370.159C254.873 370.651 254.214 371.052 253.5 371.346C250.248 372.369 243.093 366.247 245.044 361.73C245.122 361.553 245.213 361.375 245.311 361.185C247.854 356.545 258.372 348.392 258.372 348.392L263.687 347.272L274.562 344.003ZM301.876 141.496C300.906 153.469 289.79 164.879 282.264 164.034C282.069 164.034 281.874 163.979 281.685 163.942C272.631 162.106 266.113 140.412 275.005 127.931C276.23 126.235 277.679 124.692 279.317 123.34C281.555 121.504 284.254 119.998 287.123 119.631C288.054 119.496 289.002 119.496 289.933 119.631C298.038 120.941 302.598 132.681 301.876 141.496Z" fill="#FFDCAE"/>
<path d="M311.685 314.419C311.639 314.529 311.581 314.633 311.529 314.737C309.983 317.51 308.22 320.17 306.254 322.695C305.401 323.821 304.491 324.984 303.528 326.16C301.311 328.879 299.011 331.539 296.633 334.136C282.505 349.64 264.584 365.066 264.702 361.069C264.78 358.296 262.054 354.837 259.173 351.967C257.143 349.965 254.97 348.098 252.668 346.378C252.668 346.378 279.5 314.701 280.638 307.967C281.412 303.383 277.217 294.268 273.385 288.331C271.583 285.546 269.86 283.434 268.767 282.871C265.768 281.255 261.261 282.595 260.545 285.435C260.439 285.848 260.414 286.276 260.473 286.696C260.903 289.91 252.603 317.523 244.745 320.363C244.204 320.576 243.612 320.648 243.032 320.57C242.451 320.492 241.904 320.269 241.447 319.922C232.828 313.954 189.735 297.274 189.735 297.274C189.735 297.274 190.613 290.338 193.553 285.454C195.166 282.767 197.41 280.698 200.468 280.753C209.086 280.906 229.166 291.159 229.166 291.159C229.407 282.283 238.52 251.218 238.52 251.218L269.574 246.78C269.574 246.78 319.848 297.28 311.685 314.419Z" fill="#0E2F47"/>
<path d="M238.897 250.845C238.897 250.845 255.588 260.247 264.369 269.122C273.151 277.998 288.222 265.958 288.222 265.958L269.573 246.78L238.897 250.845Z" fill="#0B2433"/>
<path d="M312.505 236.068L294.182 258.514C294.182 258.514 295.541 263.001 291.964 263.46C288.386 263.919 288.223 265.958 288.223 265.958C285.529 266.624 282.77 267.034 279.988 267.182C270.927 267.641 264.332 264.562 259.57 259.304C259.512 259.237 259.447 259.169 259.382 259.108C253.144 252.552 236.745 251.646 238.514 251.193C238.632 251.193 238.762 251.034 238.898 250.82C240.85 247.814 244.583 227.914 244.687 227.333C242.671 227.1 240.67 226.769 238.69 226.341L237.935 226.17C235.06 225.49 231.938 224.487 230.052 223.048C229.46 222.601 229.187 221.463 229.161 219.828C229.161 219.18 229.161 218.451 229.245 217.661C230.156 206.154 238.456 180.622 241.604 177.262C245.507 173.13 265.62 168.998 265.62 168.998C268.69 175.401 271.851 178.792 274.876 180.334C276.068 180.946 277.398 181.282 278.756 181.313C280.113 181.343 281.459 181.069 282.681 180.512C288.184 178.204 292.074 171.753 292.074 171.753C296.184 174.755 300.461 177.548 304.888 180.12C312.265 184.405 314.431 184.197 317.033 191.34C319.635 198.484 312.505 236.068 312.505 236.068Z" fill="#E9573D"/>
<path d="M286.355 246.78L303.879 257.602C302.837 259.093 301.286 260.205 299.482 260.755C295.202 261.979 289.653 259.249 286.368 253.74C285.645 251.47 285.645 249.05 286.368 246.78H286.355ZM253.962 185.262C253.962 185.262 253.962 209.337 250.059 211.173C246.156 213.01 264.369 216.07 264.369 216.07C264.369 216.07 257.865 209.337 253.962 185.262Z" fill="#C93623"/>
<path d="M279.981 267.207C270.92 267.666 264.325 264.587 259.563 259.329C259.505 259.262 259.44 259.194 259.375 259.133C262.627 254.126 267.304 246.438 268.266 241.779C268.741 239.459 268.852 236.099 268.917 232.31L277.815 229.819C274.944 242.237 275.693 255.155 279.981 267.207ZM281.497 199.953C281.497 210.727 284.268 205.254 279.617 223.006L273.399 223.367L269.132 223.703C269.392 217.827 270.075 212 272.176 208.064C275.519 201.796 275.266 187.65 274.875 180.378C276.067 180.99 277.398 181.325 278.755 181.356C280.113 181.387 281.459 181.112 282.681 180.555C282.154 185.917 281.517 193.434 281.497 199.953Z" fill="#F9C34B"/>
<path d="M269.028 226.727C268.976 228.643 268.956 230.522 268.924 232.31C266.244 235.438 257.046 229.959 251.159 233.724C244.512 237.972 243.276 249.712 238.898 250.863C240.849 247.857 244.583 227.957 244.687 227.376C244.791 226.794 252.766 228.753 253.956 227.939C253.963 227.908 260.806 227.309 269.028 226.727ZM242.515 177.005L243.276 177.035C243.276 177.035 253.033 179.986 253.527 182.808C253.563 182.945 253.547 183.09 253.482 183.218C253.059 183.769 250.704 181.895 248.154 180.218C246.351 179.032 244.467 177.959 242.515 177.005ZM230.169 215.795C230.169 215.795 237.571 208.449 243.178 211.332C243.165 211.326 233.31 213.193 230.169 215.795ZM249.332 211.877C249.332 211.877 246.626 215.844 243.562 215.036L249.332 211.877ZM241.5 205.358L249.507 211.908C248.801 210.673 247.926 209.531 246.905 208.51C245.447 207.01 243.576 205.919 241.5 205.358ZM237.942 226.176C235.067 225.497 231.944 224.493 230.058 223.054C229.466 222.607 229.193 221.469 229.167 219.835C230.105 221.014 231.198 222.078 232.419 222.999C234.141 224.221 235.984 225.283 237.922 226.17L237.942 226.176Z" fill="#C93623"/>
<path d="M238.696 226.354L237.942 226.182C235.067 225.503 231.944 224.499 230.058 223.06C229.466 222.614 229.193 221.475 229.167 219.841C229.167 219.192 229.167 218.463 229.252 217.674C229.754 219.363 230.67 220.919 231.925 222.216C231.925 222.216 233.109 223.44 238.696 226.354ZM303.438 196.892C303.438 196.892 298.39 215.948 293.681 218.212C288.971 220.477 297.304 216.67 299.184 214.84C301.063 213.009 303.438 196.892 303.438 196.892ZM286.356 246.78C286.356 246.78 289.901 229.794 292.341 226.886C294.78 223.979 313.448 230.859 313.448 230.859C307.028 230.319 300.615 231.968 295.378 235.505C291.277 238.364 288.143 242.28 286.356 246.78ZM292.724 225.662C291.944 225.699 291.137 225.766 290.305 225.864C285.907 226.41 281.665 227.757 277.816 229.83C277.978 229.218 278.128 228.557 278.303 227.921C278.798 226.084 279.227 224.487 279.604 223.024L290.454 222.412L292.724 225.662Z" fill="#C93623"/>
<path d="M279.617 223.005C279.233 224.474 278.803 226.103 278.316 227.902C278.138 228.543 277.975 229.179 277.828 229.812C276.718 230.942 275.306 231.77 273.739 232.21C272.172 232.649 270.509 232.684 268.923 232.309C268.923 230.914 268.968 229.506 268.994 228.086C269.02 226.666 269.059 225.172 269.131 223.703L273.398 223.366L279.617 223.005Z" fill="#C99B3F"/>
<path d="M269.131 223.703C269.001 226.641 268.975 229.586 268.923 232.31L267.7 223.826L269.131 223.703Z" fill="#C93623"/>
<path d="M229.173 291.195C229.173 291.195 226.538 299.496 230.857 304.662C235.177 309.828 229.803 297.28 229.173 291.195Z" fill="#0B2433"/>
<path d="M229.16 291.158C229.16 291.158 226.675 301.001 225.081 301.001C223.487 301.001 229.114 291.887 229.16 291.158ZM244.738 320.369C244.197 320.582 243.605 320.653 243.025 320.576C242.444 320.498 241.897 320.274 241.44 319.928C232.822 313.96 189.728 297.28 189.728 297.28C189.728 297.28 190.606 290.344 193.546 285.46C191.888 291.807 244.738 320.369 244.738 320.369ZM280.631 307.992C280.631 307.992 293.517 307.992 293.914 305.629C294.311 303.266 280.631 307.992 280.631 307.992ZM280.631 307.992C280.631 307.992 292.418 308.426 293.972 310.153C295.527 311.879 280.631 307.992 280.631 307.992ZM280.631 307.992C280.631 307.992 283.435 309.051 283.942 313.005C284.449 316.959 280.631 307.992 280.631 307.992ZM306.253 322.707C292.697 340.636 264.552 366.094 264.695 361.093C264.773 358.32 262.047 354.862 259.166 351.991C265.163 350.818 270.987 348.968 276.514 346.482C288.385 341.023 298.61 332.849 306.253 322.707ZM262.6 283.011C262.6 283.011 264.857 274.95 273.391 275.849C274.12 275.929 275.512 276.192 275.564 276.719C275.636 277.508 272.552 278.194 268.272 280.085C266.319 280.949 264.425 281.927 262.6 283.011Z" fill="#0B2433"/>
<path d="M182.97 278.812C180.585 280.651 178.901 283.171 178.172 285.99C177.443 288.81 177.71 291.775 178.93 294.44C176.465 293.081 174.377 287.664 177.935 281.291C178.917 279.529 180.771 278.867 182.97 278.812ZM255.452 370.159C254.873 370.651 254.215 371.052 253.5 371.347C250.248 372.369 243.093 366.248 245.044 361.73C245.122 361.553 245.213 361.375 245.311 361.185C245.855 363.458 247.107 365.527 248.908 367.126C250.709 368.724 252.976 369.781 255.419 370.159H255.452Z" fill="#DBAE86"/>
<path d="M180.602 292.316C177.851 295.119 172.016 300.836 166.689 304.484C163.332 306.786 160.184 308.267 158.128 307.686C154.961 306.792 156.32 298.112 159.208 289.408C158.707 290.938 155.826 300.01 159.41 302.55C162.799 304.943 171.528 301.216 180.602 292.316ZM242.638 361.736C240.602 368.059 240.118 374.734 241.223 381.258C242.329 387.783 244.994 393.986 249.019 399.399C243.119 393.994 233.115 371.585 235.261 366.602C236.399 364.001 239.561 362.525 242.638 361.736Z" fill="#B72335"/>
<path d="M291.474 109.36C291.474 109.36 301.719 112.714 302.474 119.3C303.228 125.887 300.795 113.491 291.474 109.36Z" fill="#69686D"/>
<path d="M292.828 177.843C292.828 177.843 311.691 184.032 312.459 191.102C312.491 191.402 312.543 192.271 312.088 192.485C310.924 193.036 307.847 188.629 303.736 184.913C300.519 182.03 296.837 179.644 292.828 177.843Z" fill="#F47069"/>
<path d="M289.322 278.806C289.322 278.806 305.207 294.109 306.235 303.028C307.262 311.946 299.261 292.181 289.322 278.806ZM309.363 315.992C309.318 316.103 309.253 316.213 309.201 316.317C307.571 319.157 305.714 321.877 303.646 324.452C302.748 325.603 301.792 326.784 300.777 327.984C299.626 329.349 298.416 330.745 297.154 332.159C296.295 332.636 295.092 333.224 294.819 332.985C294.227 332.446 298.416 328.467 303.171 323.228C305.578 320.541 307.64 318.092 309.363 315.992ZM204.091 284.628C204.091 284.628 220.568 287.56 222.74 291.196C224.913 294.832 221.875 292.585 204.091 284.628Z" fill="#175377"/>
<path d="M314.559 199.445C314.559 199.445 315.951 215.409 311.651 216.786C311.398 216.886 311.118 216.907 310.851 216.848C309.55 216.419 311.365 212.563 312.62 208.676C313.591 205.667 314.241 202.575 314.559 199.445Z" fill="#F47069"/>
<path d="M259.381 259.133C254.248 261.134 247.262 262.322 244.966 258.716C242.202 254.383 240.068 254.529 238.559 251.31L238.514 251.218L252.499 252.185L259.381 259.133Z" fill="#E9573D"/>
<path d="M243.757 247.086C243.757 247.086 244.349 247.086 245.305 247.209C248.987 247.576 258.126 248.947 260.123 253.538C260.493 254.383 260.331 254.67 260.292 254.762C259.758 255.668 256.33 253.152 252.213 250.894C249.512 249.406 246.683 248.132 243.757 247.086ZM282.122 264.226C282.122 264.226 283.696 265.223 285.966 263.13C288.236 261.036 290.155 260.443 292.425 260.339C294.695 260.235 283.084 259.17 282.122 264.226Z" fill="#F47069"/>
<path d="M279.981 267.207C279.981 267.207 279.331 270.879 280.736 270.879C282.141 270.879 287.566 267.207 290.168 267.207C292.769 267.207 297.524 267.207 297.83 265.297C298.136 263.387 294.844 260.675 294.844 260.675" fill="#E9573D"/>
<path d="M314.917 225.747L313.447 230.859L312.836 230.742L292.339 226.886L293.855 221.989L314.533 225.68L314.917 225.747Z" fill="#606060"/>
<path d="M323.36 207.145H320.765L323.36 199.414V207.145Z" fill="#A0A0A0"/>
<path d="M372.439 188.029L369.324 194.946L364.406 205.872L353.159 230.859H313.448L314.918 225.748L314.535 225.68L320.766 207.145H323.361V199.414L328.116 185.262L371.203 187.949L372.439 188.029Z" fill="#A0A0A0"/>
<path d="M314.533 225.662L312.836 230.724L292.339 226.886L292.723 225.662C294.746 225.699 296.164 225.827 296.678 226.084C296.678 226.084 310.507 227.719 312.582 225.674C312.675 225.587 312.758 225.49 312.829 225.386L314.533 225.662Z" fill="#606060"/>
<path d="M316.01 199.023H314.78C314.741 199.023 314.676 199.023 314.676 199.072V203.901C314.676 203.938 314.676 203.956 314.728 203.956H315.47C315.509 203.956 315.522 203.956 315.522 203.901V202.175H315.893C316.973 202.175 317.844 201.685 317.844 200.541C317.851 199.702 317.337 199.023 316.01 199.023ZM315.912 201.471H315.522V199.739C315.674 199.73 315.826 199.73 315.977 199.739C316.628 199.739 316.992 200.033 316.992 200.602C316.992 201.306 316.465 201.49 315.912 201.49V201.471ZM319.718 201.777C319.21 201.532 319.126 201.416 319.126 201.257C319.126 201.098 319.249 200.926 319.626 200.926C319.917 200.926 320.203 200.993 320.459 201.122C320.505 201.122 320.531 201.122 320.531 201.079V200.467C320.532 200.45 320.528 200.432 320.52 200.416C320.513 200.4 320.5 200.386 320.485 200.376C320.209 200.286 319.918 200.244 319.626 200.253C319.466 200.236 319.303 200.251 319.149 200.296C318.995 200.341 318.852 200.415 318.73 200.515C318.608 200.614 318.509 200.736 318.439 200.874C318.369 201.011 318.331 201.16 318.325 201.312C318.325 201.832 318.605 202.145 319.288 202.451C319.763 202.683 319.874 202.824 319.874 202.989C319.874 203.155 319.717 203.338 319.34 203.338C319 203.339 318.667 203.246 318.384 203.069C318.351 203.069 318.325 203.069 318.325 203.106V203.767C318.325 203.803 318.325 203.828 318.365 203.84C318.668 203.979 319.003 204.046 319.34 204.036C320.127 204.036 320.713 203.644 320.713 202.928C320.7 202.463 320.466 202.138 319.718 201.79V201.777ZM319.718 201.777C319.21 201.532 319.126 201.416 319.126 201.257C319.126 201.098 319.249 200.926 319.626 200.926C319.917 200.926 320.203 200.993 320.459 201.122C320.505 201.122 320.531 201.122 320.531 201.079V200.467C320.532 200.45 320.528 200.432 320.52 200.416C320.513 200.4 320.5 200.386 320.485 200.376C320.209 200.286 319.918 200.244 319.626 200.253C319.466 200.236 319.303 200.251 319.149 200.296C318.995 200.341 318.852 200.415 318.73 200.515C318.608 200.614 318.509 200.736 318.439 200.874C318.369 201.011 318.331 201.16 318.325 201.312C318.325 201.832 318.605 202.145 319.288 202.451C319.763 202.683 319.874 202.824 319.874 202.989C319.874 203.155 319.717 203.338 319.34 203.338C319 203.339 318.667 203.246 318.384 203.069C318.351 203.069 318.325 203.069 318.325 203.106V203.767C318.325 203.803 318.325 203.828 318.365 203.84C318.668 203.979 319.003 204.046 319.34 204.036C320.127 204.036 320.713 203.644 320.713 202.928C320.7 202.463 320.466 202.138 319.718 201.79V201.777ZM316.01 199.004H314.78C314.741 199.004 314.676 199.004 314.676 199.053V203.883C314.676 203.92 314.676 203.938 314.728 203.938H315.47C315.509 203.938 315.522 203.938 315.522 203.883V202.157H315.893C316.973 202.157 317.844 201.667 317.844 200.522C317.851 199.702 317.337 199.023 316.01 199.023V199.004ZM315.912 201.453H315.522V199.721C315.674 199.712 315.826 199.712 315.977 199.721C316.628 199.721 316.992 200.014 316.992 200.584C316.992 201.306 316.465 201.49 315.912 201.49V201.453ZM311.905 196.599V207.109H320.765L320.914 206.656H312.387V197.088H322.911V200.847L323.393 199.414V196.635L311.905 196.599ZM319.327 203.332C318.987 203.333 318.654 203.24 318.371 203.063C318.339 203.063 318.312 203.063 318.312 203.099V203.761C318.312 203.797 318.312 203.822 318.351 203.834C318.655 203.973 318.99 204.04 319.327 204.03C320.114 204.03 320.7 203.638 320.7 202.922C320.7 202.444 320.466 202.12 319.718 201.777C319.21 201.532 319.126 201.416 319.126 201.257C319.126 201.098 319.249 200.926 319.626 200.926C319.917 200.926 320.203 200.993 320.459 201.122C320.505 201.122 320.531 201.122 320.531 201.079V200.467C320.532 200.45 320.528 200.432 320.52 200.416C320.513 200.4 320.5 200.386 320.485 200.376C320.209 200.286 319.918 200.244 319.626 200.253C319.466 200.236 319.303 200.251 319.149 200.296C318.995 200.341 318.852 200.415 318.73 200.515C318.608 200.614 318.509 200.736 318.439 200.874C318.369 201.011 318.331 201.16 318.325 201.312C318.325 201.832 318.605 202.145 319.288 202.451C319.763 202.683 319.874 202.824 319.874 202.989C319.874 203.155 319.704 203.35 319.327 203.35V203.332ZM314.774 199.047C314.735 199.047 314.67 199.047 314.67 199.096V203.926C314.67 203.963 314.67 203.981 314.722 203.981H315.463C315.502 203.981 315.515 203.981 315.515 203.926V202.2H315.886C316.966 202.2 317.838 201.71 317.838 200.565C317.838 199.69 317.324 199.01 315.997 199.01C315.6 199.023 315.19 199.029 314.78 199.047H314.774ZM316.986 200.596C316.986 201.306 316.459 201.49 315.906 201.49H315.515V199.757C315.667 199.749 315.819 199.749 315.971 199.757C316.615 199.733 316.992 200.027 316.992 200.565L316.986 200.596ZM316.003 199.023H314.774C314.735 199.023 314.67 199.023 314.67 199.072V203.901C314.67 203.938 314.67 203.956 314.722 203.956H315.463C315.502 203.956 315.515 203.956 315.515 203.901V202.175H315.886C316.966 202.175 317.838 201.685 317.838 200.541C317.851 199.702 317.337 199.023 316.01 199.023H316.003ZM315.906 201.471H315.515V199.739C315.667 199.73 315.819 199.73 315.971 199.739C316.621 199.739 316.986 200.033 316.986 200.602C316.992 201.306 316.465 201.49 315.912 201.49L315.906 201.471ZM319.711 201.777C319.204 201.532 319.119 201.416 319.119 201.257C319.119 201.098 319.243 200.926 319.62 200.926C319.91 200.926 320.197 200.993 320.453 201.122C320.498 201.122 320.524 201.122 320.524 201.079V200.467C320.525 200.45 320.522 200.432 320.514 200.416C320.506 200.4 320.494 200.386 320.479 200.376C320.203 200.286 319.912 200.244 319.62 200.253C319.459 200.236 319.297 200.251 319.142 200.296C318.988 200.341 318.845 200.415 318.723 200.515C318.601 200.614 318.502 200.736 318.432 200.874C318.363 201.011 318.324 201.16 318.319 201.312C318.319 201.832 318.599 202.145 319.282 202.451C319.757 202.683 319.867 202.824 319.867 202.989C319.867 203.155 319.711 203.338 319.334 203.338C318.994 203.339 318.661 203.246 318.378 203.069C318.345 203.069 318.319 203.069 318.319 203.106V203.767C318.319 203.803 318.319 203.828 318.358 203.84C318.661 203.979 318.996 204.046 319.334 204.036C320.121 204.036 320.706 203.644 320.706 202.928C320.7 202.463 320.466 202.138 319.718 201.79L319.711 201.777ZM316.003 199.004H314.774C314.735 199.004 314.67 199.004 314.67 199.053V203.883C314.67 203.92 314.67 203.938 314.722 203.938H315.463C315.502 203.938 315.515 203.938 315.515 203.883V202.157H315.886C316.966 202.157 317.838 201.667 317.838 200.522C317.851 199.702 317.337 199.023 316.01 199.023L316.003 199.004ZM315.906 201.453H315.515V199.721C315.667 199.712 315.819 199.712 315.971 199.721C316.621 199.721 316.986 200.014 316.986 200.584C316.992 201.306 316.465 201.49 315.912 201.49L315.906 201.453ZM319.711 201.759C319.204 201.514 319.119 201.398 319.119 201.239C319.119 201.079 319.243 200.908 319.62 200.908C319.91 200.907 320.197 200.975 320.453 201.104C320.498 201.104 320.524 201.104 320.524 201.061V200.449C320.525 200.431 320.522 200.414 320.514 200.397C320.506 200.381 320.494 200.368 320.479 200.357C320.203 200.268 319.912 200.226 319.62 200.235C319.459 200.218 319.297 200.232 319.142 200.277C318.988 200.322 318.845 200.397 318.723 200.496C318.601 200.596 318.502 200.718 318.432 200.855C318.363 200.992 318.324 201.142 318.319 201.294C318.319 201.814 318.599 202.126 319.282 202.432C319.757 202.665 319.867 202.806 319.867 202.971C319.867 203.136 319.711 203.32 319.334 203.32C318.994 203.321 318.661 203.227 318.378 203.05C318.345 203.05 318.319 203.05 318.319 203.087V203.748C318.319 203.785 318.319 203.81 318.358 203.822C318.661 203.961 318.996 204.028 319.334 204.018C320.121 204.018 320.706 203.626 320.706 202.91C320.7 202.463 320.466 202.138 319.718 201.79L319.711 201.759ZM298.798 188.892L293.237 199.635L304.945 205.003L310.507 194.26L298.798 188.892ZM299.046 189.578L309.778 194.475L304.692 204.269L293.959 199.372L299.046 189.578ZM299.696 196.837L298.597 198.062C298.597 198.098 298.551 198.098 298.499 198.062L297.784 197.731C297.732 197.731 297.732 197.688 297.784 197.639L301.53 193.709C301.63 193.6 301.713 193.479 301.778 193.348C301.782 193.344 301.787 193.341 301.792 193.339C301.798 193.337 301.804 193.335 301.81 193.335C301.816 193.335 301.822 193.337 301.828 193.339C301.833 193.341 301.838 193.344 301.843 193.348L302.864 193.82C302.872 193.821 302.879 193.825 302.886 193.83C302.892 193.835 302.897 193.841 302.9 193.849C302.903 193.856 302.905 193.864 302.904 193.871C302.903 193.879 302.901 193.887 302.896 193.893L301.882 199.561C301.882 199.604 301.882 199.623 301.81 199.604L301.003 199.237C300.964 199.237 300.945 199.2 300.951 199.163L301.264 197.596L299.702 196.88L299.696 196.837ZM301.446 196.715C301.569 196.146 301.823 194.879 301.986 194.267C301.608 194.756 300.873 195.546 300.307 196.164L301.446 196.715ZM304.965 195.172C305.029 195.047 305.144 194.952 305.284 194.906C305.424 194.861 305.577 194.87 305.71 194.931C305.842 194.992 305.944 195.1 305.992 195.231C306.04 195.362 306.031 195.507 305.967 195.632C305.939 195.698 305.896 195.758 305.841 195.807C305.786 195.856 305.72 195.893 305.648 195.916C305.576 195.939 305.5 195.947 305.425 195.939C305.349 195.931 305.277 195.907 305.212 195.87C305.142 195.845 305.08 195.805 305.028 195.755C304.977 195.704 304.938 195.643 304.914 195.576C304.89 195.509 304.883 195.439 304.891 195.369C304.9 195.299 304.925 195.232 304.965 195.172ZM304.477 196.244C304.477 196.207 304.516 196.201 304.555 196.244L305.323 196.593C305.368 196.593 305.375 196.635 305.323 196.672L303.443 200.296C303.443 200.333 303.41 200.345 303.358 200.296L302.604 199.947C302.593 199.945 302.584 199.941 302.576 199.934C302.568 199.928 302.562 199.92 302.558 199.91C302.555 199.901 302.554 199.891 302.557 199.881C302.559 199.871 302.564 199.862 302.571 199.855L304.444 196.238L304.477 196.244Z" fill="#1C1C1C"/>
<path d="M286.76 189.455L290.188 197.921L289.667 197.872C289.069 197.823 288.288 197.761 287.514 197.743L281.718 183.426H284.32L286.76 189.455ZM281.588 197.951V185.709L284.249 192.283V197.755C283.234 197.798 282.584 197.853 281.595 197.951H281.588ZM290.337 186.902V195.699L287.683 189.155V183.438H290.331C290.344 184.552 290.344 185.715 290.344 186.902H290.337Z" stroke="#1C1C1C"/>
<path d="M273.099 184.515C273.895 184.708 274.736 184.641 275.486 184.326C276.236 184.01 276.85 183.464 277.228 182.778C277.605 182.091 277.724 181.304 277.565 180.546C277.406 179.787 276.978 179.102 276.351 178.602L271.408 174.642C270.785 174.142 270.001 173.856 269.183 173.828C268.365 173.801 267.562 174.034 266.902 174.491C266.243 174.947 265.768 175.6 265.552 176.343C265.337 177.086 265.395 177.876 265.716 178.584C265.061 178.43 264.374 178.451 263.731 178.645C263.088 178.839 262.516 179.198 262.078 179.681C261.641 180.165 261.356 180.754 261.255 181.382C261.154 182.01 261.242 182.652 261.508 183.236C260.879 183.087 260.22 183.099 259.598 183.271C258.976 183.443 258.414 183.769 257.971 184.214C257.529 184.659 257.22 185.208 257.079 185.803C256.938 186.399 256.968 187.019 257.168 187.599C257.367 188.179 257.728 188.699 258.213 189.104C258.698 189.508 259.289 189.784 259.925 189.901C260.561 190.017 261.219 189.972 261.83 189.769C262.442 189.566 262.984 189.212 263.401 188.745L266.172 185.685C266.146 186.198 266.243 186.71 266.457 187.183C266.671 187.656 266.995 188.077 267.405 188.415C267.816 188.754 268.303 189.001 268.829 189.138C269.355 189.275 269.907 189.299 270.445 189.207C270.982 189.115 271.49 188.911 271.932 188.609C272.373 188.306 272.737 187.914 272.995 187.462C273.253 187.009 273.4 186.507 273.423 185.994C273.447 185.481 273.347 184.969 273.132 184.497L273.099 184.515ZM276.15 182.948C275.657 183.492 274.955 183.83 274.197 183.887C273.44 183.945 272.689 183.717 272.11 183.254L269.931 181.51L273.645 177.403L275.825 179.147C276.403 179.611 276.762 180.272 276.823 180.984C276.883 181.697 276.642 182.403 276.15 182.948ZM269.925 182.446C269.622 182.433 269.318 182.456 269.021 182.514L269.437 182.055L269.925 182.446ZM266.848 175.468C267.341 174.924 268.043 174.586 268.8 174.529C269.558 174.472 270.308 174.699 270.887 175.162L273.067 176.907L269.352 181.014L267.167 179.263C266.589 178.799 266.23 178.139 266.169 177.426C266.108 176.713 266.35 176.007 266.842 175.462L266.848 175.468ZM258.756 188.574C258.47 188.344 258.234 188.064 258.062 187.749C257.891 187.433 257.787 187.089 257.757 186.737C257.727 186.384 257.771 186.028 257.886 185.691C258.002 185.354 258.187 185.042 258.431 184.772C258.675 184.503 258.973 184.281 259.308 184.12C259.643 183.958 260.008 183.861 260.383 183.832C260.758 183.804 261.136 183.845 261.494 183.954C261.852 184.063 262.184 184.237 262.47 184.466L264.649 186.211L262.789 188.323C262.296 188.867 261.594 189.205 260.837 189.262C260.079 189.319 259.329 189.092 258.75 188.629L258.756 188.574ZM265.144 185.666L262.965 183.922C262.678 183.692 262.442 183.412 262.271 183.097C262.1 182.781 261.996 182.437 261.966 182.084C261.935 181.731 261.979 181.376 262.095 181.039C262.211 180.702 262.396 180.39 262.64 180.12C262.883 179.851 263.181 179.629 263.516 179.467C263.851 179.306 264.217 179.208 264.592 179.18C264.967 179.152 265.344 179.193 265.702 179.302C266.061 179.411 266.392 179.585 266.679 179.814L268.858 181.589L265.144 185.666ZM267.908 187.882C267.33 187.419 266.97 186.758 266.909 186.045C266.848 185.332 267.091 184.625 267.583 184.081C268.076 183.536 268.778 183.198 269.535 183.14C270.293 183.083 271.044 183.311 271.623 183.775C272.2 184.238 272.559 184.899 272.619 185.611C272.68 186.323 272.437 187.029 271.944 187.573C271.452 188.117 270.75 188.454 269.993 188.511C269.236 188.568 268.486 188.339 267.908 187.876V187.882Z" fill="#1C1C1C"/>
<path d="M313.11 224.719C313.087 224.959 312.989 225.186 312.83 225.374L293.856 221.989L292.724 225.662H290.2C280.723 225.766 263.771 227.1 256.942 227.67L256.421 227.712L253.962 227.921C256.259 221.236 263.778 216.45 264.37 216.094C274.559 218.184 284.98 219.099 295.404 218.818C296.093 218.818 296.783 218.776 297.459 218.745C298.715 218.69 299.944 218.616 301.16 218.531C304.309 219.388 313.363 222.075 313.11 224.719Z" fill="#FFDCAE"/>
<path d="M264.37 216.07C260.735 219.16 258.151 223.191 256.942 227.658L256.421 227.7L253.962 227.909C256.259 221.224 263.778 216.437 264.37 216.082V216.07Z" fill="#DBAE86"/>
<path d="M341.776 222.687C341.718 223.738 341.522 224.779 341.19 225.784C340.875 226.514 340.436 227.19 339.89 227.786C338.92 228.484 337.938 229.188 336.884 229.885C334.107 231.765 331.375 233.46 328.721 234.99L327.953 235.492C327.303 235.945 326.568 236.404 325.865 236.882C317.234 242.703 307.438 250.226 304.907 255.858C301.805 262.762 293.849 260.081 289.296 255.245C286.87 252.65 285.452 249.443 286.33 246.768C286.33 246.768 302.936 234.219 314.866 232.383C321.93 231.293 324.187 231.832 326.503 229.084C327.804 227.516 328.077 227.351 329.879 221.518C332.169 214.093 334.139 213.346 334.992 213.181C335.248 213.131 335.51 213.11 335.772 213.119C336.19 213.149 336.599 213.246 336.982 213.407C337.632 213.695 340.982 216.137 341.672 220.6C341.746 221.293 341.781 221.99 341.776 222.687Z" fill="#FFDCAE"/>
<path d="M325.871 236.888C317.239 242.709 307.443 250.232 304.913 255.864C301.81 262.769 293.855 260.087 289.302 255.252C291.416 255.252 294.85 256.433 298.174 255.117C302.383 253.446 305.082 250.587 306.507 249.186C314.69 241.179 326.541 236.435 325.871 236.888ZM340.754 217.625C341.365 218.853 341.715 220.182 341.782 221.536V223.373C341.756 224.294 341.565 225.205 341.216 226.066C340.899 226.776 340.459 227.431 339.915 228.006C338.946 228.686 337.964 229.365 336.91 230.045C334.132 231.881 331.4 233.515 328.746 235.003C328.506 235.186 328.249 235.35 327.979 235.493L328.18 235.382C333.716 232.322 336.37 229.163 336.37 229.163C337.558 228.129 338.549 226.909 339.297 225.558C340.612 223.109 341.119 220.347 340.754 217.625Z" fill="#DBAE86"/>
<path d="M281.672 163.936C272.617 162.1 266.1 140.406 274.992 127.925C276.216 126.229 277.666 124.686 279.304 123.334C272.221 158.978 281.282 163.74 281.672 163.936Z" fill="#EAB998"/>
<g style="mix-blend-mode:multiply" opacity="0.75">
<path d="M246.222 470.43C206.985 460.501 170.702 428.634 159.332 416.814C148.599 405.68 139.096 396.339 122.359 388.314C103.534 379.304 85.6205 381.085 76.3839 380.565C46.189 378.863 16.417 348.777 5.48264 320.54C-9.79039 281.089 11.2068 243.946 15.8316 236.276C36.6467 201.747 63.4135 205.346 69.9897 178.621C77.0343 150.022 50.4952 139.084 49.7146 97.7292C49.5455 88.9269 49.9943 47.4865 82.4137 21.2143C117.481 -7.2247 174.898 -5.71889 204.611 17.6763C222.675 31.8774 228.347 33.8729 242.514 90.9959C248.101 113.528 274.088 140.253 295.982 159.486C313.337 174.728 328.116 185.262 328.116 185.262L315.919 221.555C311.21 219.761 306.247 219.345 301.147 219.608C295.644 219.318 290.135 220.067 284.944 221.812C282.386 222.712 279.963 223.922 277.737 225.411C261.553 236.264 260.825 262.811 264.415 275.776C275.792 316.751 353.367 302.789 378.547 348.006C395.537 378.655 382.105 424.839 352.183 450.922C312.641 485.415 257.507 473.282 246.222 470.43Z" fill="#FFC866"/>
</g>
<path d="M158.487 267.36C156.939 270.598 155.436 273.848 154.077 277.154C153.379 278.786 152.713 280.437 152.08 282.106C151.43 283.758 150.825 285.423 150.259 287.094C149.693 288.765 149.231 290.467 148.834 292.157L147.605 297.176C147.19 298.808 146.909 300.468 146.766 302.14C146.681 303.787 146.766 305.433 147.728 306.964L147.501 307.184C146.621 306.665 145.91 305.928 145.445 305.054C144.98 304.184 144.656 303.253 144.482 302.293C144.159 300.43 144.13 298.533 144.398 296.662C144.644 294.841 145.093 293.05 145.738 291.318C146.388 289.598 147.097 287.927 147.813 286.262C148.528 284.597 149.289 282.95 150.083 281.322C150.877 279.694 151.729 278.096 152.594 276.511C154.363 273.352 156.184 270.23 158.201 267.207L158.487 267.36ZM224.692 369.18C225.687 372.601 226.734 376.011 227.944 379.371C228.521 381.057 229.126 382.728 229.759 384.385C230.41 386.049 231.06 387.696 231.711 389.318C232.361 390.94 233.2 392.532 234.039 394.074L236.492 398.684C237.276 400.192 238.183 401.641 239.204 403.017C240.251 404.333 241.429 405.558 243.211 406.158V406.464C242.182 406.59 241.135 406.448 240.186 406.054C239.242 405.662 238.365 405.14 237.584 404.505C236.065 403.266 234.75 401.822 233.682 400.22C232.634 398.678 231.762 397.037 231.08 395.323C230.429 393.615 229.831 391.895 229.252 390.181C228.673 388.467 228.146 386.747 227.658 385.015C227.17 383.283 226.747 381.544 226.357 379.8C225.583 376.305 224.868 372.803 224.406 369.271L224.692 369.18ZM200.885 268.566L203.812 269.257C204.788 269.496 205.763 269.784 206.713 270.047C207.663 270.31 208.625 270.659 209.582 270.959C210.538 271.259 211.474 271.638 212.405 272.024C214.29 272.778 216.103 273.683 217.823 274.73C218.259 274.999 218.688 275.268 219.124 275.58C219.56 275.893 219.937 276.192 220.334 276.535C220.726 276.879 221.095 277.245 221.44 277.631C221.622 277.821 221.784 278.041 221.953 278.243C222.14 278.487 222.301 278.748 222.435 279.02L220.679 279.082C221.841 275.025 222.951 270.945 224.009 266.839C224.542 264.799 225.054 262.759 225.544 260.718L226.962 254.56C227.925 250.465 229.057 246.413 230.097 242.318C230.618 240.286 231.138 238.253 231.6 236.197C232.1 234.162 232.441 232.096 232.621 230.014L232.946 229.978C233.206 231.029 233.359 232.101 233.402 233.179C233.467 234.256 233.454 235.327 233.402 236.399C233.311 238.541 233.09 240.683 232.79 242.771C232.194 246.977 231.325 251.145 230.188 255.252C229.616 257.296 228.979 259.329 228.348 261.373L226.442 267.451C225.141 271.5 223.81 275.533 222.448 279.553L221.609 281.977L220.679 279.626C220.603 279.47 220.516 279.319 220.418 279.174C220.295 279.002 220.178 278.825 220.035 278.659C219.751 278.312 219.444 277.98 219.117 277.668C218.779 277.356 218.467 277.056 218.064 276.75C217.66 276.443 217.322 276.137 216.938 275.893C215.356 274.79 213.676 273.817 211.917 272.985C211.039 272.557 210.128 272.171 209.224 271.761C208.32 271.351 207.389 271.02 206.459 270.69C205.529 270.359 204.592 270.016 203.649 269.71L200.8 268.816L200.885 268.566ZM262.914 164.701C260.578 165.111 258.243 165.534 255.954 166.072C254.802 166.323 253.657 166.586 252.526 166.886C251.394 167.186 250.262 167.462 249.156 167.798C248.05 168.135 246.965 168.527 245.904 168.974C244.857 169.402 243.816 169.788 242.769 170.137C241.721 170.486 240.713 170.865 239.737 171.306C238.71 171.739 237.772 172.34 236.966 173.081L236.661 172.971C236.78 171.691 237.38 170.494 238.352 169.592C239.244 168.694 240.283 167.936 241.429 167.346C242.529 166.777 243.706 166.35 244.928 166.078C246.138 165.809 247.348 165.625 248.538 165.411C249.729 165.197 250.932 165.032 252.122 164.879C253.313 164.726 254.516 164.64 255.713 164.554C258.113 164.42 260.5 164.316 262.868 164.395L262.914 164.701Z" fill="#FF8B00"/>
<path d="M328.116 185.262L315.919 221.554C311.21 219.761 306.247 219.345 301.147 219.608C295.839 219.883 290.382 220.887 284.944 221.812C275.297 223.458 260.811 219.112 252.102 215.788C263.81 202.095 280.878 170.614 292.574 156.921C309.902 172.169 328.116 185.262 328.116 185.262Z" fill="url(#paint0_linear_417_16)"/>
<path d="M71.1867 325.701L59.7515 330.622L64.9812 341.383M76.0847 345.276L87.5264 340.355L82.2967 329.594L76.0847 345.276Z" stroke="#1C1C1C" stroke-width="2" stroke-linecap="round" stroke-linejoin="round"/>
<path d="M158.896 194.811C157.229 194.875 155.562 194.685 153.959 194.248C153.775 193.032 153.198 191.898 152.306 191C151.415 190.102 150.252 189.483 148.975 189.228C147.698 188.972 146.368 189.092 145.165 189.57C143.963 190.049 142.945 190.863 142.251 191.904L141.476 193.03C139.343 191.804 137.564 190.101 136.299 188.072C135.033 186.043 134.321 183.751 134.224 181.4C134.224 181.4 122.515 188.611 130.152 199.653C126.612 199.727 123.14 198.732 120.245 196.813C127.134 208.982 144.137 211.357 153.029 198.429C153.243 198.115 153.426 197.783 153.575 197.437C155.574 197.044 157.416 196.135 158.896 194.811V194.811ZM287.735 421.405C289.675 420.696 291.836 420.741 293.742 421.531C295.647 422.321 297.141 423.79 297.895 425.617L301.212 433.648L296.334 435.429L292.99 427.398C292.866 427.097 292.68 426.821 292.443 426.587C292.205 426.354 291.921 426.166 291.607 426.036C291.292 425.905 290.954 425.834 290.61 425.827C290.267 425.82 289.925 425.876 289.605 425.993C289.284 426.11 288.992 426.285 288.743 426.509C288.495 426.732 288.296 426.999 288.157 427.295C288.019 427.591 287.943 427.91 287.935 428.233C287.928 428.556 287.988 428.878 288.112 429.179L291.429 437.21L286.551 438.992L283.233 430.967C282.861 430.061 282.682 429.095 282.707 428.124C282.731 427.153 282.959 426.196 283.377 425.308C283.795 424.42 284.395 423.618 285.143 422.948C285.891 422.279 286.771 421.754 287.735 421.405Z" stroke="#1C1C1C" stroke-width="2" stroke-linecap="round" stroke-linejoin="round"/>
<path d="M271.149 428.765L276.03 426.98L281.716 440.754L276.835 442.538L271.149 428.765Z" stroke="#1C1C1C" stroke-width="2" stroke-linecap="round" stroke-linejoin="round"/>
<path d="M270.223 424.26C271.566 423.771 272.233 422.349 271.713 421.085C271.193 419.822 269.683 419.194 268.34 419.683C266.997 420.172 266.33 421.593 266.85 422.857C267.369 424.121 268.88 424.749 270.223 424.26Z" stroke="#1C1C1C" stroke-width="1.99449" stroke-linecap="round" stroke-linejoin="round"/>
<path d="M336.149 356.459L332.643 358.173C331.876 358.548 331.194 359.06 330.637 359.683C330.081 360.305 329.66 361.024 329.399 361.8C329.138 362.575 329.042 363.392 329.116 364.202C329.191 365.012 329.434 365.801 329.833 366.523L331.654 369.822L328.148 371.536L330.575 375.931L334.081 374.217L338.933 382.977L343.604 380.693L338.751 371.903L342.257 370.189L341.002 365.225L336.331 367.508L334.51 364.209C334.428 364.065 334.377 363.907 334.361 363.745C334.345 363.582 334.364 363.418 334.416 363.262C334.468 363.107 334.552 362.962 334.665 362.838C334.777 362.714 334.915 362.612 335.069 362.538L338.575 360.824L336.149 356.459Z" stroke="#1C1C1C" stroke-width="2" stroke-linecap="round" stroke-linejoin="round"/>
<path d="M59.2726 245.907L55.7326 258.392C54.7555 261.838 56.9319 265.377 60.5938 266.296L73.861 269.628C77.5229 270.547 81.2836 268.499 82.2607 265.053L85.8007 252.568C86.7778 249.122 84.6013 245.583 80.9394 244.663L67.6722 241.332C64.0103 240.413 60.2497 242.461 59.2726 245.907Z" stroke="#1C1C1C" stroke-width="2" stroke-linecap="round" stroke-linejoin="round"/>
<path d="M76.2857 255.999C76.1519 257.078 75.6595 258.091 74.8787 258.892C74.0979 259.693 73.0685 260.242 71.9369 260.461C70.8053 260.679 69.6293 260.557 68.5762 260.11C67.5231 259.663 66.6466 258.915 66.0715 257.972C65.4964 257.029 65.252 255.94 65.373 254.859C65.494 253.778 65.9744 252.76 66.7456 251.951C67.5169 251.142 68.5398 250.582 69.6687 250.351C70.7976 250.121 71.975 250.231 73.0334 250.667C74.1108 251.111 75.0084 251.868 75.5939 252.828C76.1794 253.788 76.4219 254.899 76.2857 255.999V255.999Z" stroke="#1C1C1C" stroke-width="2" stroke-linecap="round" stroke-linejoin="round"/>
<path d="M80.0005 250.422H80.0158" stroke="#1C1C1C" stroke-width="2" stroke-linecap="round" stroke-linejoin="round"/>
<path d="M95.6375 84.8749C95.2674 84.733 94.9612 84.4744 94.7713 84.1435C94.5814 83.8126 94.5195 83.4299 94.5964 83.0608C94.6732 82.6918 94.884 82.3593 95.1925 82.1203C95.5011 81.8813 95.8883 81.7506 96.288 81.7506C96.6876 81.7506 97.0749 81.8813 97.3834 82.1203C97.692 82.3593 97.9027 82.6918 97.9796 83.0608C98.0564 83.4299 97.9946 83.8126 97.8047 84.1435C97.6147 84.4744 97.3085 84.733 96.9384 84.8749C96.5214 85.0348 96.0545 85.0348 95.6375 84.8749ZM107.541 86.0991C107.174 85.952 106.765 85.9291 106.382 86.0343C105.999 86.1396 105.667 86.3665 105.442 86.6763C105.217 86.9861 105.113 87.3598 105.148 87.7336C105.183 88.1074 105.355 88.4582 105.634 88.7263C105.913 88.9944 106.282 89.1632 106.678 89.2039C107.075 89.2446 107.474 89.1547 107.808 88.9496C108.142 88.7444 108.39 88.4367 108.509 88.0787C108.629 87.7208 108.613 87.3349 108.465 86.9867C108.38 86.7889 108.255 86.6087 108.097 86.4564C107.938 86.3041 107.75 86.1827 107.541 86.0991ZM103.424 92.1407C101.871 92.2473 100.315 92.0029 98.8831 91.4279C97.4516 90.8528 96.1872 89.9639 95.1952 88.8353C95.1474 88.7806 95.0885 88.7354 95.0221 88.7021C94.9557 88.6688 94.883 88.6482 94.8081 88.6414C94.7332 88.6346 94.6576 88.6417 94.5856 88.6624C94.5136 88.683 94.4467 88.7168 94.3886 88.7619C94.3305 88.8069 94.2824 88.8622 94.2471 88.9247C94.2117 88.9872 94.1898 89.0557 94.1825 89.1262C94.1753 89.1966 94.1828 89.2678 94.2048 89.3355C94.2268 89.4032 94.2627 89.4662 94.3105 89.5209C95.4222 90.7779 96.8368 91.7669 98.4366 92.4058C100.036 93.0446 101.775 93.3147 103.508 93.1936C103.583 93.1884 103.657 93.1693 103.724 93.1374C103.791 93.1055 103.851 93.0614 103.901 93.0077C103.95 92.954 103.987 92.8917 104.011 92.8243C104.035 92.757 104.044 92.6859 104.038 92.6151C104.033 92.5444 104.012 92.4754 103.979 92.412C103.945 92.3487 103.898 92.2922 103.841 92.2459C103.784 92.1996 103.717 92.1643 103.646 92.142C103.574 92.1198 103.499 92.111 103.424 92.1163V92.1407ZM115.783 90.3044C115.717 91.1181 115.511 91.9163 115.171 92.6672C114.013 95.2197 111.418 97.0071 107.873 97.6927C104.074 98.2575 100.183 97.8038 96.6449 96.3834C93.1073 94.963 90.0664 92.6334 87.8709 89.6617C85.9195 86.7786 85.5162 83.7853 86.674 81.2267C87.0157 80.476 87.4859 79.7833 88.066 79.1761C87.7954 78.7222 87.6273 78.2207 87.5724 77.7028C87.5174 77.185 87.5768 76.6621 87.7468 76.1669C87.9167 75.6716 88.1936 75.2148 88.5601 74.8251C88.9265 74.4353 89.3746 74.121 89.8762 73.9019C90.3778 73.6828 90.9221 73.5636 91.475 73.5518C92.0279 73.54 92.5774 73.6359 93.089 73.8334C93.6007 74.0309 94.0634 74.3258 94.4482 74.6995C94.833 75.0733 95.1316 75.5178 95.3253 76.0053C98.5335 75.7232 101.766 76.1813 104.744 77.3397L108.244 72.1856C108.325 72.0659 108.454 71.9814 108.601 71.9504C108.748 71.9195 108.903 71.9446 109.031 72.0204L113.057 74.3709C113.545 73.8844 114.207 73.5857 114.916 73.5327C115.625 73.4797 116.329 73.6762 116.892 74.0841C117.456 74.492 117.838 75.0822 117.966 75.7403C118.093 76.3984 117.956 77.0776 117.581 77.6461C117.207 78.2147 116.621 78.6321 115.938 78.8174C115.255 79.0028 114.523 78.9429 113.885 78.6494C113.246 78.3558 112.746 77.8496 112.481 77.2287C112.216 76.6079 112.206 75.9167 112.452 75.2891L108.907 73.2446L105.811 77.7988C108.691 79.0204 111.218 80.8738 113.181 83.2038C113.687 83.0075 114.23 82.9106 114.778 82.9192C115.325 82.9279 115.865 83.0417 116.363 83.2539C116.862 83.4661 117.31 83.7721 117.678 84.153C118.047 84.5339 118.329 84.9818 118.506 85.469C118.684 85.9562 118.754 86.4725 118.712 86.9862C118.67 87.4998 118.516 87.9998 118.261 88.4556C118.006 88.9114 117.655 89.3133 117.228 89.6365C116.802 89.9597 116.31 90.1974 115.783 90.335V90.3044ZM113.564 75.6135C113.408 75.9587 113.384 76.3442 113.496 76.7044C113.607 77.0646 113.849 77.3772 114.178 77.5889C114.507 77.8006 114.904 77.8983 115.301 77.8654C115.699 77.8325 116.071 77.671 116.356 77.4084C116.641 77.1459 116.821 76.7985 116.864 76.4255C116.907 76.0524 116.812 75.6768 116.594 75.3626C116.376 75.0484 116.048 74.8151 115.668 74.7023C115.288 74.5896 114.878 74.6044 114.508 74.7443C114.294 74.8231 114.1 74.9411 113.936 75.0914C113.772 75.2417 113.641 75.4213 113.551 75.6196L113.564 75.6135ZM115.158 89.3495C115.581 89.2976 115.986 89.1579 116.343 88.9404C116.701 88.7229 117.003 88.4331 117.227 88.092C117.451 87.751 117.592 87.3673 117.638 86.9688C117.685 86.5703 117.637 86.167 117.497 85.7882C117.358 85.4094 117.13 85.0646 116.831 84.7789C116.533 84.4932 116.17 84.2737 115.769 84.1364C115.369 83.9991 114.941 83.9475 114.517 83.9852C114.093 84.023 113.683 84.1491 113.317 84.3546C113.197 84.4224 113.054 84.4461 112.916 84.4213C112.778 84.3965 112.655 84.3248 112.569 84.2199V84.1893C110.554 81.6802 107.858 79.7285 104.764 78.5394C101.702 77.2621 98.3314 76.7862 95.0065 77.1622H94.9675C94.8231 77.1841 94.6752 77.1533 94.5543 77.0759C94.4333 76.9984 94.3484 76.8804 94.317 76.7459C94.2218 76.3551 94.0352 75.9891 93.7708 75.6746C93.5064 75.36 93.1709 75.1049 92.7886 74.9277C92.4063 74.7505 91.9869 74.6557 91.5608 74.6501C91.1347 74.6446 90.7126 74.7284 90.3253 74.8956C89.9379 75.0628 89.595 75.309 89.3215 75.6165C89.0479 75.924 88.8506 76.285 88.7439 76.6733C88.6371 77.0615 88.6237 77.4672 88.7045 77.861C88.7852 78.2547 88.9582 78.6266 89.2108 78.9496C89.2948 79.0563 89.3339 79.1884 89.3207 79.3205C89.3075 79.4527 89.2429 79.5757 89.1393 79.6658C88.5241 80.2441 88.0317 80.9276 87.6887 81.6796C85.5747 86.3317 89.7768 92.4958 97.0555 95.4217C104.334 98.3476 111.964 96.9336 114.078 92.2754C114.419 91.5194 114.602 90.709 114.618 89.8882C114.617 89.7562 114.668 89.6285 114.76 89.5292C114.852 89.4299 114.98 89.366 115.119 89.3495H115.158Z" fill="#1C1C1C"/>
<path d="M163.917 24.9848C166.974 25.9563 169.552 27.9403 171.17 30.5673L167.079 32.4037C166.027 30.7589 164.387 29.52 162.454 28.9085C160.112 28.2111 157.573 28.3983 155.374 29.4303C153.176 30.4624 151.49 32.2584 150.673 34.4389C149.856 36.6193 149.973 39.0132 150.997 41.1144C152.022 43.2157 153.875 44.8597 156.164 45.6989C160.502 47.1374 164.457 45.7907 166.331 42.6689L166.695 42.0568L165.999 41.8242L159.117 39.5777L160.587 35.654L172.393 39.5777C172.237 40.3309 172.019 41.0716 171.743 41.7936C170.442 45.35 168.028 47.9148 165.056 49.3349C162.083 50.755 158.486 50.9509 154.648 49.69C152.926 49.1207 151.339 48.2376 149.979 47.0911C148.62 45.9445 147.513 44.557 146.724 43.0079C145.934 41.4588 145.477 39.7784 145.378 38.0628C145.279 36.3473 145.54 34.6302 146.147 33.0097C146.751 31.3886 147.69 29.8956 148.908 28.6161C150.127 27.3365 151.601 26.2955 153.247 25.5525C154.893 24.8095 156.679 24.3791 158.502 24.2859C160.325 24.1926 162.15 24.4385 163.872 25.0093L163.917 24.9848Z" stroke="#1C1C1C" stroke-width="1.75"/>
<path d="M161.505 379.242L182.789 377.761C183.191 377.731 183.565 377.553 183.828 377.265C184.091 376.977 184.223 376.603 184.194 376.225L182.62 356.196V356.153C182.621 356.133 182.621 356.112 182.62 356.092C182.599 356.026 182.564 355.966 182.516 355.915L173.734 347.896C173.668 347.84 173.587 347.802 173.5 347.786H173.35L159.105 348.698C158.703 348.727 158.329 348.906 158.066 349.193C157.803 349.481 157.671 349.855 157.7 350.234L159.879 377.896C159.892 378.085 159.944 378.27 160.032 378.44C160.121 378.61 160.244 378.762 160.395 378.887C160.546 379.012 160.722 379.108 160.913 379.169C161.103 379.23 161.305 379.255 161.505 379.242ZM173.955 349.426L180.967 355.829L175.003 356.245C174.782 356.245 174.463 355.878 174.437 355.566L173.955 349.426ZM158.728 350.185C158.723 350.122 158.73 350.059 158.751 349.999C158.772 349.94 158.805 349.884 158.848 349.836C158.892 349.789 158.945 349.749 159.005 349.721C159.064 349.693 159.13 349.676 159.196 349.671L172.856 348.716L173.403 355.633C173.427 356.038 173.609 356.421 173.913 356.709C174.218 356.996 174.624 357.169 175.055 357.194L181.644 356.735L183.186 376.286C183.191 376.349 183.183 376.412 183.162 376.471C183.142 376.531 183.109 376.587 183.065 376.635C183.022 376.682 182.968 376.722 182.909 376.75C182.849 376.778 182.784 376.795 182.717 376.8L161.434 378.281C161.367 378.287 161.3 378.28 161.236 378.261C161.172 378.242 161.112 378.211 161.061 378.17C161.01 378.129 160.969 378.078 160.939 378.022C160.909 377.965 160.892 377.904 160.887 377.841L158.728 350.185Z" fill="#1C1C1C"/>
<path d="M164.199 361.791L177.377 360.873C177.512 360.863 177.637 360.803 177.725 360.707C177.813 360.611 177.856 360.485 177.846 360.359C177.835 360.232 177.772 360.114 177.67 360.032C177.567 359.949 177.434 359.908 177.299 359.918L164.121 360.836C164.054 360.841 163.989 360.858 163.93 360.887C163.87 360.915 163.817 360.954 163.773 361.002C163.73 361.05 163.697 361.105 163.676 361.165C163.655 361.225 163.647 361.288 163.652 361.35C163.658 361.413 163.676 361.474 163.706 361.53C163.736 361.586 163.778 361.636 163.829 361.677C163.879 361.718 163.938 361.749 164.002 361.769C164.065 361.788 164.132 361.796 164.199 361.791ZM164.511 365.604L177.69 364.686C177.756 364.681 177.821 364.664 177.881 364.636C177.94 364.607 177.993 364.568 178.037 364.521C178.08 364.473 178.114 364.417 178.134 364.358C178.155 364.298 178.163 364.235 178.158 364.172C178.153 364.109 178.135 364.048 178.104 363.992C178.074 363.936 178.032 363.886 177.982 363.845C177.931 363.804 177.872 363.773 177.809 363.754C177.745 363.734 177.678 363.727 177.612 363.731L164.433 364.65C164.366 364.654 164.301 364.672 164.242 364.7C164.182 364.728 164.129 364.768 164.086 364.815C164.042 364.863 164.009 364.918 163.988 364.978C163.968 365.038 163.96 365.101 163.965 365.164C163.97 365.226 163.988 365.288 164.018 365.344C164.048 365.4 164.09 365.45 164.141 365.491C164.192 365.532 164.25 365.563 164.314 365.582C164.377 365.602 164.444 365.609 164.511 365.604ZM163.913 357.978L169.995 357.555C170.129 357.545 170.254 357.486 170.342 357.389C170.43 357.293 170.473 357.168 170.463 357.041C170.453 356.914 170.389 356.797 170.287 356.714C170.184 356.632 170.051 356.591 169.916 356.6L163.835 357.023C163.7 357.032 163.575 357.092 163.487 357.188C163.399 357.285 163.356 357.41 163.366 357.537C163.377 357.663 163.44 357.781 163.542 357.864C163.645 357.946 163.778 357.987 163.913 357.978ZM164.81 369.424L177.989 368.506C178.123 368.496 178.248 368.437 178.336 368.34C178.424 368.244 178.468 368.118 178.457 367.992C178.447 367.865 178.383 367.748 178.281 367.665C178.179 367.582 178.045 367.541 177.911 367.551L164.732 368.469C164.598 368.479 164.473 368.539 164.385 368.635C164.297 368.731 164.254 368.857 164.264 368.983C164.274 369.11 164.338 369.228 164.44 369.31C164.543 369.393 164.676 369.434 164.81 369.424ZM165.11 373.238L178.288 372.319C178.355 372.315 178.42 372.297 178.479 372.269C178.539 372.241 178.592 372.201 178.635 372.154C178.679 372.106 178.712 372.05 178.733 371.991C178.753 371.931 178.762 371.868 178.756 371.805C178.751 371.742 178.733 371.681 178.703 371.625C178.673 371.569 178.631 371.519 178.58 371.478C178.529 371.437 178.471 371.406 178.407 371.387C178.344 371.367 178.277 371.36 178.21 371.364L165.031 372.283C164.965 372.287 164.9 372.305 164.84 372.333C164.781 372.361 164.728 372.401 164.684 372.448C164.641 372.496 164.608 372.552 164.587 372.611C164.566 372.671 164.558 372.734 164.563 372.797C164.568 372.86 164.586 372.921 164.617 372.977C164.647 373.033 164.689 373.083 164.739 373.124C164.79 373.165 164.849 373.196 164.912 373.215C164.976 373.235 165.043 373.242 165.11 373.238Z" fill="#1C1C1C"/>
<g opacity="0.86">
<path opacity="0.86" d="M197.333 126.781C196.803 126.459 196.227 126.21 195.622 126.04C195.188 125.922 194.765 125.814 194.354 125.716C193.85 125.585 193.343 125.469 192.831 125.367C192.072 125.219 191.325 125.015 190.6 124.755C190.129 124.58 189.715 124.293 189.397 123.922C189.115 123.571 188.977 123.137 189.007 122.698C189.01 122.255 189.168 121.825 189.456 121.474C189.811 121.063 190.282 120.756 190.815 120.586C191.571 120.338 192.369 120.222 193.17 120.243C193.794 120.235 194.417 120.313 195.017 120.476C195.454 120.593 195.864 120.783 196.227 121.039C196.49 121.225 196.711 121.458 196.877 121.725C196.923 121.805 196.985 121.876 197.06 121.934C197.135 121.992 197.221 122.035 197.314 122.062C197.407 122.088 197.504 122.097 197.6 122.088C197.697 122.079 197.79 122.052 197.876 122.009C197.961 121.966 198.037 121.908 198.098 121.838C198.16 121.767 198.206 121.686 198.234 121.599C198.262 121.511 198.271 121.42 198.262 121.329C198.252 121.238 198.224 121.15 198.178 121.07C197.914 120.635 197.557 120.256 197.131 119.956C196.618 119.591 196.038 119.32 195.42 119.154C194.677 118.948 193.905 118.846 193.131 118.854C192.148 118.831 191.169 118.978 190.243 119.289C189.454 119.555 188.76 120.024 188.239 120.641C187.758 121.238 187.497 121.967 187.498 122.716C187.475 123.456 187.721 124.182 188.194 124.773C188.669 125.336 189.292 125.773 190.002 126.04C190.609 126.26 191.23 126.442 191.862 126.585H191.895C192.161 126.658 192.597 126.763 193.196 126.891L193.931 127.056L194.074 127.093H194.126C194.477 127.179 194.822 127.271 195.134 127.356C195.594 127.489 196.031 127.68 196.435 127.926C196.746 128.114 197.006 128.367 197.196 128.666C197.401 129.074 197.491 129.525 197.458 129.975C197.425 130.425 197.27 130.86 197.007 131.237C196.63 131.71 196.115 132.069 195.524 132.272C194.736 132.562 193.893 132.699 193.046 132.676C192.063 132.709 191.086 132.52 190.197 132.125C189.727 131.888 189.324 131.551 189.02 131.139C188.771 130.826 188.624 130.452 188.597 130.062C188.597 129.878 188.519 129.702 188.382 129.573C188.244 129.443 188.057 129.37 187.862 129.37C187.667 129.37 187.48 129.443 187.342 129.573C187.204 129.702 187.127 129.878 187.127 130.062C187.149 130.721 187.375 131.359 187.777 131.898C188.217 132.498 188.804 132.989 189.488 133.331C190.585 133.831 191.795 134.075 193.014 134.041C194.055 134.065 195.09 133.89 196.058 133.526C196.902 133.225 197.637 132.7 198.172 132.015C198.678 131.355 198.934 130.556 198.9 129.744C198.923 129.149 198.78 128.558 198.484 128.032C198.189 127.505 197.751 127.061 197.216 126.744L197.333 126.781ZM207.597 128.911C208.018 126.713 207.867 124.452 207.157 122.32C206.448 120.189 205.201 118.251 203.522 116.671C201.844 115.092 199.785 113.918 197.52 113.251C195.255 112.583 192.852 112.441 190.516 112.837C188.854 112.035 186.965 111.75 185.12 112.022C183.275 112.295 181.57 113.111 180.249 114.353C178.928 115.595 178.06 117.2 177.769 118.936C177.479 120.672 177.781 122.45 178.632 124.014C178.211 126.212 178.362 128.474 179.071 130.605C179.781 132.736 181.028 134.675 182.706 136.254C184.385 137.833 186.444 139.007 188.709 139.675C190.974 140.342 193.377 140.484 195.713 140.088C197.375 140.888 199.263 141.171 201.106 140.898C202.95 140.624 204.653 139.808 205.973 138.566C207.293 137.324 208.16 135.721 208.451 133.986C208.741 132.251 208.44 130.475 207.591 128.911H207.597ZM203.284 138.742C202.198 139.305 200.977 139.6 199.736 139.6C198.495 139.6 197.275 139.305 196.188 138.742C196.035 138.663 195.858 138.637 195.687 138.668C193.555 139.066 191.352 138.964 189.272 138.371C187.192 137.778 185.299 136.712 183.76 135.267C182.222 133.822 181.085 132.043 180.45 130.087C179.816 128.131 179.703 126.058 180.121 124.051C180.154 123.892 180.126 123.727 180.043 123.586C179.276 122.272 178.982 120.759 179.206 119.275C179.431 117.79 180.161 116.415 181.288 115.355C182.414 114.294 183.876 113.607 185.453 113.396C187.031 113.185 188.638 113.461 190.034 114.184C190.186 114.265 190.364 114.291 190.535 114.257C192.67 113.857 194.877 113.959 196.961 114.554C199.044 115.148 200.939 116.217 202.478 117.666C204.018 119.115 205.154 120.898 205.786 122.858C206.418 124.819 206.526 126.896 206.101 128.905C206.067 129.066 206.094 129.233 206.179 129.376C207.107 130.981 207.324 132.866 206.782 134.62C206.24 136.374 204.983 137.856 203.284 138.742Z" fill="#1C1C1C"/>
</g>
<path d="M343.337 206.043H346.83C346.83 206.76 346.581 207.457 346.121 208.028C345.661 208.599 345.015 209.013 344.282 209.207C343.549 209.401 342.769 209.364 342.06 209.102C341.351 208.84 340.753 208.367 340.356 207.756C339.959 207.145 339.785 206.428 339.861 205.715C339.937 205.002 340.258 204.332 340.776 203.806C341.294 203.281 341.981 202.93 342.73 202.805C343.48 202.681 344.253 202.791 344.93 203.117L343.337 206.043Z" fill="#D3D3D3"/>
<defs>
<linearGradient id="paint0_linear_417_16" x1="256.076" y1="173.589" x2="319.188" y2="229.715" gradientUnits="userSpaceOnUse">
<stop offset="0.24" stop-color="#FF7300" stop-opacity="0"/>
<stop offset="0.3" stop-color="#FF7801" stop-opacity="0.04"/>
<stop offset="0.41" stop-color="#FF8405" stop-opacity="0.14"/>
<stop offset="0.55" stop-color="#FE980A" stop-opacity="0.3"/>
<stop offset="0.71" stop-color="#FDB412" stop-opacity="0.53"/>
<stop offset="0.9" stop-color="#FDD81B" stop-opacity="0.82"/>
<stop offset="1" stop-color="#FCEE21"/>
</linearGradient>
</defs>
</svg>
