<svg width="120" height="42" viewBox="0 0 120 42" fill="none" xmlns="http://www.w3.org/2000/svg">
<path d="M12.2695 22.7422C12.2695 24.2891 11.7109 25.5078 10.5938 26.3984C9.48438 27.2891 7.9375 27.7344 5.95312 27.7344C4.125 27.7344 2.50781 27.3906 1.10156 26.7031V23.3281C2.25781 23.8438 3.23438 24.207 4.03125 24.418C4.83594 24.6289 5.57031 24.7344 6.23438 24.7344C7.03125 24.7344 7.64062 24.582 8.0625 24.2773C8.49219 23.9727 8.70703 23.5195 8.70703 22.918C8.70703 22.582 8.61328 22.2852 8.42578 22.0273C8.23828 21.7617 7.96094 21.5078 7.59375 21.2656C7.23438 21.0234 6.49609 20.6367 5.37891 20.1055C4.33203 19.6133 3.54688 19.1406 3.02344 18.6875C2.5 18.2344 2.08203 17.707 1.76953 17.1055C1.45703 16.5039 1.30078 15.8008 1.30078 14.9961C1.30078 13.4805 1.8125 12.2891 2.83594 11.4219C3.86719 10.5547 5.28906 10.1211 7.10156 10.1211C7.99219 10.1211 8.83984 10.2266 9.64453 10.4375C10.457 10.6484 11.3047 10.9453 12.1875 11.3281L11.0156 14.1523C10.1016 13.7773 9.34375 13.5156 8.74219 13.3672C8.14844 13.2188 7.5625 13.1445 6.98438 13.1445C6.29688 13.1445 5.76953 13.3047 5.40234 13.625C5.03516 13.9453 4.85156 14.3633 4.85156 14.8789C4.85156 15.1992 4.92578 15.4805 5.07422 15.7227C5.22266 15.957 5.45703 16.1875 5.77734 16.4141C6.10547 16.6328 6.875 17.0312 8.08594 17.6094C9.6875 18.375 10.7852 19.1445 11.3789 19.918C11.9727 20.6836 12.2695 21.625 12.2695 22.7422ZM20.5195 16.6953C19.7617 16.6953 19.168 16.9375 18.7383 17.4219C18.3086 17.8984 18.0625 18.5781 18 19.4609H23.0156C23 18.5781 22.7695 17.8984 22.3242 17.4219C21.8789 16.9375 21.2773 16.6953 20.5195 16.6953ZM21.0234 27.7344C18.9141 27.7344 17.2656 27.1523 16.0781 25.9883C14.8906 24.8242 14.2969 23.1758 14.2969 21.043C14.2969 18.8477 14.8438 17.1523 15.9375 15.957C17.0391 14.7539 18.5586 14.1523 20.4961 14.1523C22.3477 14.1523 23.7891 14.6797 24.8203 15.7344C25.8516 16.7891 26.3672 18.2461 26.3672 20.1055V21.8398H17.918C17.957 22.8555 18.2578 23.6484 18.8203 24.2188C19.3828 24.7891 20.1719 25.0742 21.1875 25.0742C21.9766 25.0742 22.7227 24.9922 23.4258 24.8281C24.1289 24.6641 24.8633 24.4023 25.6289 24.043V26.8086C25.0039 27.1211 24.3359 27.3516 23.625 27.5C22.9141 27.6562 22.0469 27.7344 21.0234 27.7344ZM32.8477 27.5H29.2734V9.26562H32.8477V27.5ZM40.1836 27.5H36.6094V9.26562H40.1836V27.5ZM59.7773 18.9102C59.7773 21.7461 59.0742 23.9258 57.668 25.4492C56.2617 26.9727 54.2461 27.7344 51.6211 27.7344C48.9961 27.7344 46.9805 26.9727 45.5742 25.4492C44.168 23.9258 43.4648 21.7383 43.4648 18.8867C43.4648 16.0352 44.168 13.8594 45.5742 12.3594C46.9883 10.8516 49.0117 10.0977 51.6445 10.0977C54.2773 10.0977 56.2891 10.8555 57.6797 12.3711C59.0781 13.8867 59.7773 16.0664 59.7773 18.9102ZM47.2734 18.9102C47.2734 20.8242 47.6367 22.2656 48.3633 23.2344C49.0898 24.2031 50.1758 24.6875 51.6211 24.6875C54.5195 24.6875 55.9688 22.7617 55.9688 18.9102C55.9688 15.0508 54.5273 13.1211 51.6445 13.1211C50.1992 13.1211 49.1094 13.6094 48.375 14.5859C47.6406 15.5547 47.2734 16.9961 47.2734 18.9102ZM72.3281 27.5L71.8477 25.8242H71.6602C71.2773 26.4336 70.7344 26.9062 70.0312 27.2422C69.3281 27.5703 68.5273 27.7344 67.6289 27.7344C66.0898 27.7344 64.9297 27.3242 64.1484 26.5039C63.3672 25.6758 62.9766 24.4883 62.9766 22.9414V14.3984H66.5508V22.0508C66.5508 22.9961 66.7188 23.707 67.0547 24.1836C67.3906 24.6523 67.9258 24.8867 68.6602 24.8867C69.6602 24.8867 70.3828 24.5547 70.8281 23.8906C71.2734 23.2188 71.4961 22.1094 71.4961 20.5625V14.3984H75.0703V27.5H72.3281ZM84.3398 24.8867C84.9648 24.8867 85.7148 24.75 86.5898 24.4766V27.1367C85.6992 27.5352 84.6055 27.7344 83.3086 27.7344C81.8789 27.7344 80.8359 27.375 80.1797 26.6562C79.5312 25.9297 79.207 24.8438 79.207 23.3984V17.082H77.4961V15.5703L79.4648 14.375L80.4961 11.6094H82.7812V14.3984H86.4492V17.082H82.7812V23.3984C82.7812 23.9062 82.9219 24.2812 83.2031 24.5234C83.4922 24.7656 83.8711 24.8867 84.3398 24.8867Z" fill="#1C1C1C"/>
<path d="M21.9312 27.7118C22.5701 27.6784 23.1347 27.6078 23.625 27.5C24.336 27.3516 25.0039 27.1211 25.6289 26.8086V26.3526L21.9312 27.7118Z" fill="#FF8E06"/>
<path d="M29.2735 25.013V27.5H32.8477V23.6992L29.2735 25.013Z" fill="#FF8E06"/>
<path d="M36.6094 22.3166V27.5H40.1836V21.0028L36.6094 22.3166Z" fill="#FF8E06"/>
<path d="M43.4895 19.7877C43.625 22.2032 44.3199 24.0904 45.5742 25.4492C46.9805 26.9727 48.9961 27.7344 51.6211 27.7344C54.2461 27.7344 56.2617 26.9727 57.668 25.4492C59.0742 23.9258 59.7774 21.7461 59.7774 18.9102C59.7774 17.0289 59.4714 15.4382 58.8593 14.1382L55.3766 15.4183C55.7714 16.318 55.9688 17.482 55.9688 18.9102C55.9688 22.7617 54.5196 24.6875 51.6211 24.6875C50.1758 24.6875 49.0899 24.2031 48.3633 23.2344C47.6367 22.2656 47.2735 20.8242 47.2735 18.9102C47.2735 18.7339 47.2766 18.5616 47.2828 18.3934L43.4895 19.7877Z" fill="#FF8E06"/>
<path d="M71.8477 25.8242L72.3282 27.5H75.0703V14.3984H71.4961V20.5625C71.4961 22.1094 71.2735 23.2188 70.8282 23.8906C70.3828 24.5547 69.6602 24.8867 68.6602 24.8867C67.9258 24.8867 67.3907 24.6523 67.0547 24.1836C66.7188 23.707 66.5508 22.9961 66.5508 22.0508V14.3984H62.9766V22.9414C62.9766 24.4883 63.3672 25.6758 64.1485 26.5039C64.9297 27.3242 66.0899 27.7344 67.6289 27.7344C68.5274 27.7344 69.3282 27.5703 70.0313 27.2422C70.7344 26.9062 71.2774 26.4336 71.6602 25.8242H71.8477Z" fill="#FF8E06"/>
<path d="M86.5899 24.4766C85.7149 24.75 84.9649 24.8867 84.3399 24.8867C83.8711 24.8867 83.4922 24.7656 83.2032 24.5234C82.9219 24.2812 82.7813 23.9062 82.7813 23.3984V17.082H86.4492V14.3984H82.7813V11.6094H80.4961L79.4649 14.375L77.4961 15.5703V17.082H79.2071V23.3984C79.2071 24.8438 79.5313 25.9297 80.1797 26.6562C80.836 27.375 81.8789 27.7344 83.3086 27.7344C84.6055 27.7344 85.6992 27.5352 86.5899 27.1367V24.4766Z" fill="#FF8E06"/>
<path d="M22 41.5H92.9026L101.115 22L109.327 26L116 9.5" stroke="#FF8E06"/>
<path d="M109.416 12.2256L115.579 8.90673L118.566 14.4546" stroke="#FF8E06"/>
</svg>
