<svg width="111" height="14" viewBox="0 0 111 14" fill="none" xmlns="http://www.w3.org/2000/svg">
<g clip-path="url(#clip0_0_77)">
<path d="M3.66756 13.0756C3.32981 13.2488 2.94656 12.9452 3.01481 12.5576L3.74106 8.41881L0.658437 5.48231C0.370561 5.20756 0.520186 4.70531 0.906062 4.65106L5.19181 4.04206L7.10281 0.255937C7.27519 -0.0853125 7.74156 -0.0853125 7.91394 0.255937L9.82494 4.04206L14.1107 4.65106C14.4966 4.70531 14.6462 5.20756 14.3574 5.48231L11.2757 8.41881L12.0019 12.5576C12.0702 12.9452 11.6869 13.2488 11.3492 13.0756L7.50706 11.1016L3.66669 13.0756H3.66756Z" fill="#F9C34B"/>
</g>
<path d="M27.6676 13.0756C27.3298 13.2488 26.9466 12.9452 27.0148 12.5576L27.7411 8.41881L24.6585 5.48231C24.3706 5.20756 24.5202 4.70531 24.9061 4.65106L29.1918 4.04206L31.1028 0.255937C31.2752 -0.0853125 31.7416 -0.0853125 31.914 0.255937L33.825 4.04206L38.1107 4.65106C38.4966 4.70531 38.6462 5.20756 38.3575 5.48231L35.2757 8.41881L36.002 12.5576C36.0702 12.9452 35.687 13.2488 35.3492 13.0756L31.5071 11.1016L27.6667 13.0756H27.6676Z" fill="#F9C34B"/>
<path d="M51.6676 13.0756C51.3299 13.2488 50.9466 12.9452 51.0149 12.5576L51.7411 8.41881L48.6585 5.48231C48.3706 5.20756 48.5202 4.70531 48.9061 4.65106L53.1919 4.04206L55.1029 0.255937C55.2752 -0.0853125 55.7416 -0.0853125 55.914 0.255937L57.825 4.04206L62.1107 4.65106C62.4966 4.70531 62.6462 5.20756 62.3575 5.48231L59.2757 8.41881L60.002 12.5576C60.0702 12.9452 59.687 13.2488 59.3492 13.0756L55.5071 11.1016L51.6667 13.0756H51.6676Z" fill="#F9C34B"/>
<path d="M75.6677 13.0756C75.3299 13.2488 74.9467 12.9452 75.0149 12.5576L75.7412 8.41881L72.6586 5.48231C72.3707 5.20756 72.5203 4.70531 72.9062 4.65106L77.1919 4.04206L79.1029 0.255937C79.2753 -0.0853125 79.7417 -0.0853125 79.9141 0.255937L81.8251 4.04206L86.1108 4.65106C86.4967 4.70531 86.6463 5.20756 86.3576 5.48231L83.2758 8.41881L84.0021 12.5576C84.0703 12.9452 83.6871 13.2488 83.3493 13.0756L79.5072 11.1016L75.6668 13.0756H75.6677Z" fill="#F9C34B"/>
<path d="M99.6677 13.0756C99.33 13.2488 98.9467 12.9452 99.015 12.5576L99.7412 8.41881L96.6586 5.48231C96.3707 5.20756 96.5203 4.70531 96.9062 4.65106L101.192 4.04206L103.103 0.255937C103.275 -0.0853125 103.742 -0.0853125 103.914 0.255937L105.825 4.04206L110.111 4.65106C110.497 4.70531 110.646 5.20756 110.358 5.48231L107.276 8.41881L108.002 12.5576C108.07 12.9452 107.687 13.2488 107.349 13.0756L103.507 11.1016L99.6668 13.0756H99.6677Z" fill="#F9C34B"/>
<defs>
<clipPath id="clip0_0_77">
<rect width="14" height="13.1254" fill="white" transform="translate(0.50824)"/>
</clipPath>
</defs>
</svg>
